<?xml version="1.0" encoding="UTF-8"?>
<svg version="1.1" xmlns="http://www.w3.org/2000/svg" width="200" height="200">
<path d="M0 0 C13.09479061 13.79710637 18.28236228 30.57813476 18.5 49.25 C18.51853027 50.26296143 18.53706055 51.27592285 18.55615234 52.31958008 C18.54793457 53.2711499 18.5397168 54.22271973 18.53125 55.203125 C18.52673828 56.05551758 18.52222656 56.90791016 18.51757812 57.78613281 C18 60 18 60 16.29025269 61.61455727 C13.56589206 63.26260495 12.00474732 63.37699592 8.83837891 63.38095093 C7.27376923 63.39364014 7.27376923 63.39364014 5.67755127 63.40658569 C3.96931183 63.39747665 3.96931183 63.39747665 2.2265625 63.38818359 C0.42115997 63.39606903 0.42115997 63.39606903 -1.42071533 63.40411377 C-4.71836133 63.41505467 -8.0154426 63.4124912 -11.31305695 63.40297651 C-14.76519018 63.39537724 -18.21729941 63.40242627 -21.66943359 63.40713501 C-27.46651539 63.4125918 -33.2634825 63.40540304 -39.06054688 63.39111328 C-45.76121143 63.37478681 -52.46160214 63.38007538 -59.16226006 63.3965925 C-64.91694418 63.41020963 -70.67154589 63.41212595 -76.42624092 63.40427649 C-79.86255507 63.39960118 -83.29874052 63.3989711 -86.73504639 63.40888596 C-90.56565992 63.41916663 -94.39596709 63.40491444 -98.2265625 63.38818359 C-99.36538879 63.39425629 -100.50421509 63.40032898 -101.67755127 63.40658569 C-102.72062439 63.39812622 -103.76369751 63.38966675 -104.83837891 63.38095093 C-105.7439151 63.37981985 -106.64945129 63.37868877 -107.58242798 63.37752342 C-110.49183764 62.92319558 -111.87369287 62.00792514 -114 60 C-114.51757812 57.78613281 -114.51757812 57.78613281 -114.53125 55.203125 C-114.53946777 54.25155518 -114.54768555 53.29998535 -114.55615234 52.31958008 C-114.53762207 51.30661865 -114.5190918 50.29365723 -114.5 49.25 C-114.48791504 48.21319092 -114.47583008 47.17638184 -114.46337891 46.1081543 C-113.9678878 26.77649354 -106.68327973 10.22860048 -92.69140625 -3.21875 C-83.32877222 -11.21311731 -72.04631388 -16.55582037 -60 -19 C-58.1746875 -19.37125 -58.1746875 -19.37125 -56.3125 -19.75 C-34.97490094 -21.80085308 -15.54092967 -14.57257387 0 0 Z M-71 -8 C-72.3921875 -7.39865234 -72.3921875 -7.39865234 -73.8125 -6.78515625 C-88.61342572 0.46813832 -99.0477463 12.93956053 -104.4375 28.4375 C-107.25735607 37.52932294 -107 45.15149478 -107 55 C-68.06 55 -29.12 55 11 55 C11 35.29849142 7.98521741 19.51309145 -5.66552734 5.06420898 C-16.14969572 -5.41461214 -30.29456947 -12.11145245 -45.15454102 -12.38037109 C-54.40890918 -12.36074737 -62.37859391 -11.73672356 -71 -8 Z " fill="#000000" transform="translate(148,116)"/>
<path d="M0 0 C7.41061337 7.01975823 10.84492733 16.11956678 11.2890625 26.19140625 C10.97489076 36.75356085 6.26356717 45.63049869 -1.2109375 52.87890625 C-9.16960615 59.6450708 -17.39415617 61.49723735 -27.7265625 61.125 C-37.98336791 60.01267521 -45.49119955 55.63318963 -52.1484375 47.75390625 C-58.08722307 38.13355645 -60.66563386 29.39421095 -58.6875 18.12890625 C-55.9474937 7.81358841 -50.17376277 0.39281915 -41.1484375 -5.24609375 C-27.06859819 -12.22189756 -12.02843228 -9.56044717 0 0 Z M-46.74609375 9.72265625 C-51.24059492 16.23279722 -52.96377668 23.52148686 -51.74609375 31.3359375 C-49.73247107 39.09255505 -45.93163758 45.16146414 -39.2109375 49.62890625 C-32.26275098 53.5446774 -25.12922396 55.1129394 -17.37109375 52.99609375 C-7.98940576 49.79750482 -2.92618483 45.43156179 1.8515625 36.75390625 C4.72783906 30.0208043 4.31740652 22.98084438 1.9453125 16.140625 C-1.45006755 8.58131604 -6.31947031 4.12786591 -13.2734375 -0.18359375 C-25.97513074 -4.80503362 -38.61790515 -0.52842396 -46.74609375 9.72265625 Z " fill="#000000" transform="translate(124.1484375,30.24609375)"/>
</svg>
